# xmcd
#
# Track frame offsets:
#	150
#	20024
#	50840
#	71668
#	92024
#	111128
#	139517
#	153892
#	172294
#	188433
#	215412
#	237781
#	254843
#	282683
#	301520
#	317283
#	338161
#
# Disc length: 4754 seconds
#
# Revision: 1
# Processed by: cddbd v1.5.2PL0 Copyright (c) Steve Scherf et al.
# Submitted via: EZCDAudioConverter 7.0.6.1
#
DISCID=f2129011
DTITLE=Various Artist - One Way Glass [CD3)
DYEAR=2017
DGENRE=blues
TTITLE0=John Kongos - He's Gonna Step On You Again
TTITLE1=Paladin - Bad Times
TTITLE2=The Tremeloes - Instant Whip
TTITLE3=Atomic Rooster - The Rock
TTITLE4=Fat Mattress - Margarita
TTITLE5=Soft Machine - Gesolreut [Live]
TTITLE6=Bridget St. John - Some Kind Of Beautiful
TTITLE7=Audience - House On The Hill
TTITLE8=Noir - Indian Rope Man
TTITLE9=Skin Alley - So Many People
TTITLE10=Trifle - Alibi Annie
TTITLE11=Juicy Lucy - I'm A Thief
TTITLE12=Hanson - Travelling Like A Gypsy
TTITLE13=Fair Weather - Looking For The Red Label
TTITLE14=The Web - I'm A Man
TTITLE15=Pesky Gee - Pigs Foot
TTITLE16=John Schroeder Orchestra - One Way Glass
EXTD=
EXTT0=
EXTT1=
EXTT2=
EXTT3=
EXTT4=
EXTT5=
EXTT6=
EXTT7=
EXTT8=
EXTT9=
EXTT10=
EXTT11=
EXTT12=
EXTT13=
EXTT14=
EXTT15=
EXTT16=
PLAYORDER=
